<mxfile host="app.diagrams.net" modified="2022-06-07T11:01:12.719Z" agent="5.0 (Windows NT 10.0; Win64; x64) AppleWebKit/537.36 (KHTML, like Gecko) Chrome/102.0.0.0 Safari/537.36" etag="U-sij1dpSmk0cJACR17t" version="18.2.0" type="github">
  <diagram id="Qj2mBUZ48-bVHCZe4_wr" name="Page-1">
    <mxGraphModel dx="4474" dy="4495" grid="1" gridSize="10" guides="1" tooltips="1" connect="1" arrows="1" fold="1" page="1" pageScale="1" pageWidth="827" pageHeight="1169" math="0" shadow="0">
      <root>
        <mxCell id="0" />
        <mxCell id="1" parent="0" />
        <mxCell id="Qw0CkTAiq_1mrWID1eZY-1" value="" style="group" connectable="0" vertex="1" parent="1">
          <mxGeometry x="-1240" y="-2000" width="490" height="790" as="geometry" />
        </mxCell>
        <mxCell id="Qw0CkTAiq_1mrWID1eZY-2" value="Actor" style="shape=umlActor;verticalLabelPosition=bottom;verticalAlign=top;html=1;outlineConnect=0;fontColor=#FFFFFF;strokeColor=#000000;strokeWidth=2;fillColor=#999999;gradientColor=none;" vertex="1" parent="Qw0CkTAiq_1mrWID1eZY-1">
          <mxGeometry x="80" y="140" width="340" height="650" as="geometry" />
        </mxCell>
        <mxCell id="Qw0CkTAiq_1mrWID1eZY-3" value="&lt;font color=&quot;#000000&quot; style=&quot;font-size: 70px;&quot;&gt;비회원&lt;/font&gt;" style="text;html=1;strokeColor=none;fillColor=none;align=center;verticalAlign=middle;whiteSpace=wrap;rounded=0;fontColor=#FFFFFF;fontSize=70;" vertex="1" parent="Qw0CkTAiq_1mrWID1eZY-1">
          <mxGeometry width="490" height="130" as="geometry" />
        </mxCell>
        <mxCell id="Qw0CkTAiq_1mrWID1eZY-7" value="" style="group" connectable="0" vertex="1" parent="1">
          <mxGeometry x="1440" y="-360" width="490" height="867" as="geometry" />
        </mxCell>
        <mxCell id="Qw0CkTAiq_1mrWID1eZY-8" value="Actor" style="shape=umlActor;verticalLabelPosition=bottom;verticalAlign=top;html=1;outlineConnect=0;fontColor=#FFFFFF;strokeColor=#000000;strokeWidth=2;fillColor=#CCFFE6;gradientColor=none;" vertex="1" parent="Qw0CkTAiq_1mrWID1eZY-7">
          <mxGeometry x="75" y="217" width="340" height="650" as="geometry" />
        </mxCell>
        <mxCell id="Qw0CkTAiq_1mrWID1eZY-9" value="&lt;font color=&quot;#000000&quot; style=&quot;font-size: 70px&quot;&gt;관리자&lt;/font&gt;" style="text;html=1;strokeColor=none;fillColor=none;align=center;verticalAlign=middle;whiteSpace=wrap;rounded=0;fontColor=#FFFFFF;fontSize=70;" vertex="1" parent="Qw0CkTAiq_1mrWID1eZY-7">
          <mxGeometry width="490" height="130" as="geometry" />
        </mxCell>
        <mxCell id="Qw0CkTAiq_1mrWID1eZY-10" value="가입" style="ellipse;whiteSpace=wrap;html=1;fontSize=30;" vertex="1" parent="1">
          <mxGeometry x="-107.5" y="-1810" width="205" height="80" as="geometry" />
        </mxCell>
        <mxCell id="Qw0CkTAiq_1mrWID1eZY-12" value="" style="rounded=0;whiteSpace=wrap;html=1;fillColor=#f5f5f5;fontColor=#333333;strokeColor=#000000;strokeWidth=2;" vertex="1" parent="1">
          <mxGeometry x="-260" y="-1540" width="510" height="130" as="geometry" />
        </mxCell>
        <mxCell id="Qw0CkTAiq_1mrWID1eZY-13" value="아이디찾기" style="ellipse;whiteSpace=wrap;html=1;fontSize=30;" vertex="1" parent="1">
          <mxGeometry x="-236.25" y="-1515" width="210" height="80" as="geometry" />
        </mxCell>
        <mxCell id="Qw0CkTAiq_1mrWID1eZY-14" value="비밀번호찾기" style="ellipse;whiteSpace=wrap;html=1;fontSize=30;" vertex="1" parent="1">
          <mxGeometry x="10" y="-1515" width="210" height="80" as="geometry" />
        </mxCell>
        <mxCell id="Qw0CkTAiq_1mrWID1eZY-15" value="" style="rounded=0;whiteSpace=wrap;html=1;fillColor=#3399FF;strokeColor=#36393d;" vertex="1" parent="1">
          <mxGeometry x="-320" y="-1040" width="630" height="410" as="geometry" />
        </mxCell>
        <mxCell id="Qw0CkTAiq_1mrWID1eZY-16" value="호텔소개 &lt;br&gt;등록 및 수정" style="ellipse;whiteSpace=wrap;html=1;fontSize=30;strokeColor=#66B2FF;" vertex="1" parent="1">
          <mxGeometry x="25.78625000000011" y="-1008.1111111111111" width="243.43749999999997" height="91.11111111111111" as="geometry" />
        </mxCell>
        <mxCell id="Qw0CkTAiq_1mrWID1eZY-17" value="객실소개&lt;br&gt;등록 및 수정" style="ellipse;whiteSpace=wrap;html=1;fontSize=30;strokeColor=#66B2FF;" vertex="1" parent="1">
          <mxGeometry x="25.78625000000011" y="-882.8333333333335" width="243.43749999999997" height="91.11111111111111" as="geometry" />
        </mxCell>
        <mxCell id="Qw0CkTAiq_1mrWID1eZY-18" value="관광지소개&lt;br&gt;등록 및 수정" style="ellipse;whiteSpace=wrap;html=1;fontSize=30;strokeColor=#66B2FF;" vertex="1" parent="1">
          <mxGeometry x="25.78625000000011" y="-755.2777777777778" width="243.43749999999997" height="91.11111111111111" as="geometry" />
        </mxCell>
        <mxCell id="Qw0CkTAiq_1mrWID1eZY-21" value="" style="endArrow=classic;html=1;rounded=0;fontSize=70;fontColor=#000000;strokeColor=#333333;strokeWidth=5;fillColor=#FFB5C6;exitX=1;exitY=0.3333333333333333;exitDx=0;exitDy=0;exitPerimeter=0;entryX=0;entryY=0.5;entryDx=0;entryDy=0;" edge="1" parent="1" source="Qw0CkTAiq_1mrWID1eZY-2" target="Qw0CkTAiq_1mrWID1eZY-10">
          <mxGeometry width="50" height="50" relative="1" as="geometry">
            <mxPoint x="-1280" y="-1343.3333333333335" as="sourcePoint" />
            <mxPoint x="-110" y="-1770" as="targetPoint" />
          </mxGeometry>
        </mxCell>
        <mxCell id="Qw0CkTAiq_1mrWID1eZY-22" value="" style="endArrow=classic;html=1;rounded=0;fontSize=70;fontColor=#000000;strokeColor=#333333;strokeWidth=5;fillColor=#FFB5C6;entryX=0;entryY=0.5;entryDx=0;entryDy=0;exitX=1;exitY=0.3333333333333333;exitDx=0;exitDy=0;exitPerimeter=0;" edge="1" parent="1" source="Qw0CkTAiq_1mrWID1eZY-2" target="Qw0CkTAiq_1mrWID1eZY-12">
          <mxGeometry width="50" height="50" relative="1" as="geometry">
            <mxPoint x="-1850" y="-1450" as="sourcePoint" />
            <mxPoint x="-97.50000000000091" y="-1760" as="targetPoint" />
          </mxGeometry>
        </mxCell>
        <mxCell id="Qw0CkTAiq_1mrWID1eZY-23" value="" style="group" vertex="1" connectable="0" parent="1">
          <mxGeometry x="-1370" y="-420" width="490" height="803" as="geometry" />
        </mxCell>
        <mxCell id="Qw0CkTAiq_1mrWID1eZY-5" value="Actor" style="shape=umlActor;verticalLabelPosition=bottom;verticalAlign=top;html=1;outlineConnect=0;fontColor=#FFFFFF;strokeColor=#000000;strokeWidth=2;fillColor=#E5CCFF;gradientColor=none;" vertex="1" parent="Qw0CkTAiq_1mrWID1eZY-23">
          <mxGeometry x="75" y="153" width="340" height="650" as="geometry" />
        </mxCell>
        <mxCell id="Qw0CkTAiq_1mrWID1eZY-6" value="&lt;font color=&quot;#000000&quot; style=&quot;font-size: 70px&quot;&gt;회원&lt;/font&gt;" style="text;html=1;strokeColor=none;fillColor=none;align=center;verticalAlign=middle;whiteSpace=wrap;rounded=0;fontColor=#FFFFFF;fontSize=70;" vertex="1" parent="Qw0CkTAiq_1mrWID1eZY-23">
          <mxGeometry width="490" height="130" as="geometry" />
        </mxCell>
      </root>
    </mxGraphModel>
  </diagram>
</mxfile>
